<svg xmlns="http://www.w3.org/2000/svg" width="20" height="20" viewBox="0 0 20 20"><path d="M18.617 11.99c-.265 1.411-2.37 2.955-4.788 3.254-1.261.156-2.502.299-3.826.236-2.165-.103-3.873-.535-3.873-.535 0 .218.013.426.039.621.282 2.214 2.119 2.346 3.859 2.408 1.756.063 3.32-.449 3.32-.449l.072 1.646s-1.228.684-3.417.81c-1.207.068-2.705-.032-4.45-.511-3.785-1.038-4.436-5.22-4.536-9.463-.03-1.259-.011-2.447-.011-3.441 0-4.338 2.742-5.61 2.742-5.61C5.131.298 7.504.021 9.972 0h.06c2.467.021 4.842.298 6.225.956 0 0 2.742 1.272 2.742 5.61 0 0 .035 3.201-.382 5.424Zm-2.853-5.087c0-1.074-.264-1.927-.793-2.558-.547-.631-1.262-.955-2.15-.955-1.028 0-1.806.409-2.321 1.228l-.5.869-.5-.869C8.985 3.799 8.207 3.39 7.179 3.39c-.888 0-1.603.324-2.15.955-.529.631-.793 1.484-.793 2.558v5.253h2.008V7.057c0-1.075.436-1.62 1.309-1.62.965 0 1.449.647 1.449 1.927v2.791h1.996V7.364c0-1.28.484-1.927 1.449-1.927.873 0 1.309.545 1.309 1.62v5.099h2.008V6.903Z"/></svg>